<?xml version="1.0" standalone="no"?>
<!DOCTYPE svg PUBLIC "-//W3C//DTD SVG 20010904//EN"
 "http://www.w3.org/TR/2001/REC-SVG-20010904/DTD/svg10.dtd">
<svg version="1.0" xmlns="http://www.w3.org/2000/svg"
 width="377.000000pt" height="147.000000pt" viewBox="0 0 377.000000 147.000000"
 preserveAspectRatio="xMidYMid meet">

<g transform="translate(0.000000,147.000000) scale(0.100000,-0.100000)"
fill="#000000" stroke="none">
<path d="M3031 1299 c-118 -23 -233 -149 -311 -341 -21 -51 -27 -57 -59 -63
-40 -7 -81 -30 -81 -45 0 -6 20 -10 45 -10 25 0 45 -2 45 -4 0 -13 -93 -264
-127 -342 -69 -158 -123 -236 -180 -260 -38 -16 -76 -6 -93 26 -14 25 -30 25
-64 -1 -58 -45 -15 -103 75 -102 158 2 301 185 449 571 l43 112 75 0 75 0 -7
-197 -7 -197 -65 -83 c-74 -94 -109 -118 -164 -109 -45 7 -73 -17 -68 -60 6
-54 91 -47 167 14 20 16 113 130 206 255 94 124 200 261 236 304 36 43 78 92
93 110 l27 32 -25 7 c-52 13 -71 -3 -164 -128 -49 -68 -101 -139 -114 -159
l-25 -37 5 152 c6 183 4 187 -87 168 -31 -7 -74 -12 -95 -12 -43 0 -44 -4 10
123 61 146 117 212 187 224 48 7 67 -17 43 -58 -9 -16 -14 -34 -11 -39 19 -30
97 9 116 57 14 37 -13 80 -59 92 -20 6 -39 10 -42 10 -3 -1 -25 -5 -49 -10z"/>
<path d="M735 1167 c-40 -10 -51 -17 -53 -35 -3 -20 1 -22 37 -22 52 0 57 -10
71 -140 6 -58 14 -114 17 -125 5 -16 -31 -55 -183 -202 -104 -100 -186 -185
-182 -189 4 -3 31 -3 61 0 52 7 54 8 143 108 49 55 107 122 130 148 l41 49 12
-132 c15 -158 24 -177 84 -176 66 1 141 31 145 58 3 21 1 22 -41 16 -40 -6
-47 -4 -60 16 -8 13 -20 74 -26 134 -7 61 -14 122 -17 136 -5 24 13 44 165
185 179 166 190 184 115 184 -40 0 -55 -13 -198 -172 -53 -59 -96 -101 -96
-94 0 46 -24 234 -31 249 -11 20 -57 21 -134 4z"/>
<path d="M1329 1121 c-34 -34 -38 -75 -10 -91 26 -13 62 1 90 36 54 69 -16
118 -80 55z"/>
<path d="M2557 1139 c-42 -25 -57 -99 -22 -113 40 -15 108 47 103 93 -2 21 -9
26 -33 28 -16 2 -38 -2 -48 -8z"/>
<path d="M2365 952 c-6 -4 -15 -16 -21 -27 -18 -33 -58 -41 -99 -22 -84 40
-202 9 -282 -74 -71 -74 -95 -170 -54 -220 18 -23 18 -23 -13 -44 -42 -28 -62
-70 -47 -101 9 -21 7 -25 -22 -40 -81 -42 -147 -120 -147 -175 0 -98 183 -132
334 -61 84 39 162 115 172 167 13 73 -17 99 -150 134 -43 11 -83 24 -89 30
-19 19 11 38 69 44 130 13 248 114 269 230 6 28 12 37 27 37 28 0 76 27 88 50
17 33 -11 89 -35 72z m-195 -111 c36 -68 -25 -197 -102 -216 -21 -5 -33 -1
-54 20 -23 23 -25 32 -20 67 14 87 66 148 127 148 28 0 41 -5 49 -19z m-161
-449 c71 -22 82 -41 56 -89 -42 -77 -185 -122 -250 -79 -51 33 -19 128 55 167
42 23 68 23 139 1z"/>
<path d="M1253 905 c-36 -26 -158 -364 -151 -421 3 -26 7 -29 43 -32 28 -2 56
5 95 25 72 37 79 58 16 50 -34 -5 -48 -3 -52 7 -6 15 47 172 97 289 28 66 31
80 19 87 -22 14 -43 12 -67 -5z"/>
<path d="M1445 902 c-47 -14 -61 -22 -63 -39 -3 -20 0 -21 39 -16 42 6 42 6
35 -21 -4 -15 -36 -104 -72 -197 -36 -94 -64 -173 -61 -175 2 -3 23 -2 47 2
38 6 44 11 61 51 46 108 178 276 243 310 25 13 30 13 43 0 12 -12 7 -31 -37
-143 -33 -80 -53 -146 -54 -174 l-1 -45 37 -3 c49 -4 158 43 158 68 0 16 -5
17 -41 8 -67 -17 -67 -6 -5 151 75 188 73 241 -10 241 -52 0 -107 -33 -179
-107 l-64 -66 27 77 c23 66 25 78 12 86 -20 13 -44 11 -115 -8z"/>
<path d="M2461 903 c-21 -18 -121 -278 -143 -372 -15 -65 -7 -81 38 -81 50 0
154 47 154 70 0 16 -5 17 -41 8 -23 -6 -44 -7 -49 -2 -12 14 15 105 75 248 56
135 57 146 9 146 -12 0 -31 -8 -43 -17z"/>
</g>
</svg>
